<svg xmlns="http://www.w3.org/2000/svg" width="22" height="22" fill="none" viewBox="0 0 22 22">
  <path stroke="#414042" stroke-linecap="round" stroke-linejoin="round" stroke-width="1.5"
    d="M4.83 8.938c-.001-.816.159-1.623.471-2.377.313-.753.771-1.437 1.35-2.012.577-.575 1.263-1.03 2.018-1.339.754-.309 1.563-.465 2.378-.46 3.402.025 6.124 2.853 6.124 6.265v.61c0 3.078.644 4.864 1.21 5.84.062.104.094.223.095.344 0 .12-.03.24-.09.345-.06.105-.147.192-.252.253-.104.06-.223.093-.344.093H4.21c-.121 0-.24-.032-.345-.093-.104-.061-.19-.148-.25-.253-.06-.105-.092-.224-.091-.345 0-.121.033-.24.094-.344.568-.976 1.212-2.762 1.212-5.84v-.687zM8.25 16.5v.688c0 .729.29 1.428.805 1.944.516.516 1.216.805 1.945.805.73 0 1.429-.29 1.944-.805.516-.516.806-1.215.806-1.945V16.5" />
</svg>
