<svg xmlns="http://www.w3.org/2000/svg" width="24" height="24" fill="none" viewBox="0 0 24 24">
    <path stroke="#fff" stroke-linecap="round" stroke-linejoin="round" stroke-width="1.5" d="M19.5 19.5h-15c-.398 0-.78-.158-1.06-.44C3.157 18.78 3 18.399 3 18V7.5c0-.398.158-.78.44-1.06.28-.282.662-.44 1.06-.44h3L9 3.75h6L16.5 6h3c.398 0 .78.158 1.06.44.282.28.44.662.44 1.06V18c0 .398-.158.78-.44 1.06-.28.282-.662.44-1.06.44z"/>
    <path stroke="#fff" stroke-linecap="round" stroke-linejoin="round" stroke-width="1.5" d="M12 15.75c1.864 0 3.375-1.511 3.375-3.375S13.864 9 12 9s-3.375 1.511-3.375 3.375S10.136 15.75 12 15.75z"/>
</svg>
