<svg xmlns="http://www.w3.org/2000/svg" width="22" height="22" fill="none" viewBox="0 0 22 22">
    <path stroke="#414042" stroke-linecap="round" stroke-linejoin="round" stroke-width="1.5" d="M11 15.813c2.658 0 4.813-2.155 4.813-4.813S13.658 6.188 11 6.188 6.187 8.342 6.187 11c0 2.658 2.155 4.813 4.813 4.813z"/>
    <path stroke="#414042" stroke-linecap="round" stroke-linejoin="round" stroke-width="1.5" d="M18.563 10.313l.885-1.329c.058-.086.096-.183.112-.285.016-.102.01-.206-.02-.305-.167-.55-.387-1.083-.657-1.59-.05-.091-.118-.17-.202-.23-.083-.06-.179-.102-.28-.122l-1.567-.313-.973-.973-.313-1.567c-.02-.101-.061-.197-.122-.28-.06-.083-.139-.152-.229-.202-.508-.27-1.04-.49-1.59-.657-.1-.03-.204-.036-.306-.02-.102.016-.2.054-.285.112l-1.328.886h-1.375l-1.329-.886c-.086-.058-.183-.096-.285-.112-.102-.016-.206-.01-.305.02-.55.167-1.083.387-1.59.657-.091.05-.17.119-.23.202-.06.083-.102.179-.122.28L6.14 5.166l-.973.973-1.567.313c-.101.02-.197.061-.28.122-.083.06-.152.139-.202.23-.27.507-.49 1.04-.657 1.59-.03.099-.036.203-.02.305.016.102.054.2.112.285l.886 1.329v1.374l-.886 1.33c-.058.085-.096.182-.112.284-.016.102-.01.206.02.305.167.55.387 1.083.657 1.59.05.091.119.17.202.23.083.06.179.102.28.122l1.567.313.973.973.313 1.567c.02.101.061.197.122.28.06.084.139.152.23.202.507.27 1.04.49 1.59.657.099.03.203.036.305.02.102-.016.2-.054.285-.112l1.329-.885h1.374l1.33.885c.085.058.182.096.284.112.102.016.206.01.305-.02.55-.167 1.083-.387 1.59-.657.091-.05.17-.118.23-.202.061-.083.102-.179.122-.28l.313-1.567.973-.973 1.567-.313c.101-.02.197-.061.28-.122.084-.06.152-.139.202-.229.27-.508.49-1.04.657-1.59.03-.1.036-.204.02-.306-.016-.102-.054-.2-.112-.285l-.885-1.328v-1.375z"/>
</svg>
