<svg xmlns="http://www.w3.org/2000/svg" width="212" height="40" fill="none" viewBox="0 0 212 40">
    <path fill="#fff" d="M0 0H211V40H0z" transform="translate(.5)"/>
    <path fill="url(#paint0_linear)" d="M8.263 14.321c.366-.01.728.07 1.056.232l3.137 1.814c.298.209.547.48.73.794.181.315.293.666.326 1.028v3.614c-.034.362-.146.712-.328 1.027-.182.314-.43.586-.728.795L9.32 25.44c-.328.16-.69.236-1.056.224-.362.014-.723-.063-1.048-.224l-3.144-1.815c-.297-.21-.546-.48-.728-.795-.182-.314-.294-.665-.328-1.027V18.19c.033-.362.145-.713.327-1.027.182-.315.43-.586.729-.795l3.144-1.814c.325-.164.685-.244 1.048-.232zm0-1.445c-.617-.012-1.226.135-1.77.426l-3.145 1.836c-.516.337-.946.791-1.255 1.325-.309.533-.488 1.132-.524 1.747v3.615c.036.616.215 1.214.524 1.748.309.534.739.987 1.255 1.325l3.144 1.814c.545.288 1.155.433 1.771.42.62.012 1.231-.132 1.779-.42l3.137-1.814c.516-.338.946-.791 1.255-1.325.309-.534.488-1.132.524-1.748v-3.614c-.036-.616-.215-1.215-.524-1.748-.309-.534-.739-.988-1.255-1.325l-3.137-1.814c-.547-.29-1.16-.438-1.779-.427v-.021z"/>
    <path fill="url(#paint1_linear)" d="M23.004 14.321c.363-.01.723.07 1.048.232l3.145 1.814c.295.21.542.482.723.796.18.315.292.665.325 1.026v3.614c-.034.361-.146.71-.326 1.025-.181.315-.428.586-.723.797l-3.144 1.815c-.326.16-.686.236-1.048.224-.365.012-.728-.065-1.056-.224l-3.145-1.815c-.294-.21-.54-.482-.722-.797-.18-.314-.292-.664-.326-1.025V18.19c.033-.361.144-.711.325-1.026.18-.314.428-.586.724-.796l3.144-1.814c.328-.163.69-.242 1.056-.232zm0-1.445c-.62-.011-1.232.136-1.779.426l-3.144 1.836c-.516.338-.944.792-1.252 1.325-.308.534-.486 1.133-.52 1.747v3.615c.034.615.212 1.214.52 1.747.308.534.736.988 1.252 1.325l3.144 1.815c.548.288 1.16.433 1.779.42.616.013 1.226-.132 1.77-.42l3.145-1.815c.516-.337.944-.791 1.252-1.325.308-.533.486-1.132.52-1.747v-3.614c-.034-.615-.212-1.214-.52-1.748-.308-.533-.736-.987-1.252-1.325l-3.144-1.814c-.544-.291-1.154-.438-1.771-.427v-.021z"/>
    <path fill="url(#paint2_linear)" d="M37.736 14.321c.366-.01.728.07 1.056.232l3.137 1.814c.298.209.547.48.73.794.181.315.293.666.326 1.028v3.614c-.034.362-.146.712-.328 1.027-.182.314-.43.586-.728.795l-3.137 1.815c-.328.16-.69.236-1.056.224-.362.014-.722-.063-1.048-.224l-3.144-1.815c-.297-.21-.546-.48-.728-.795-.182-.314-.294-.665-.328-1.027V18.19c.033-.362.145-.713.327-1.027.182-.315.43-.586.729-.795l3.144-1.814c.325-.164.685-.244 1.048-.232zm0-1.445c-.616-.012-1.226.135-1.77.426l-3.145 1.836c-.516.337-.946.791-1.255 1.325-.309.533-.488 1.132-.524 1.747v3.615c.036.616.215 1.214.524 1.748.309.534.739.987 1.255 1.325l3.144 1.814c.545.288 1.155.433 1.771.42.62.012 1.231-.132 1.779-.42l3.137-1.814c.517-.338.946-.791 1.255-1.325.31-.534.488-1.132.524-1.748v-3.614c-.036-.616-.215-1.215-.524-1.748-.309-.534-.738-.988-1.255-1.325l-3.137-1.814c-.547-.29-1.16-.438-1.779-.427v-.021z"/>
    <path fill="url(#paint3_linear)" d="M15.63 27.196c.368-.012.733.068 1.063.232l3.144 1.814c.296.21.543.482.724.796.18.315.291.665.325 1.026v3.614c-.035.361-.147.71-.328 1.025-.18.314-.426.586-.72.797l-3.145 1.83c-.331.147-.69.223-1.052.223-.363 0-.721-.076-1.052-.224l-3.145-1.814c-.294-.212-.54-.484-.72-.798-.181-.314-.293-.663-.328-1.024v-3.615c.033-.36.144-.71.325-1.025.18-.315.428-.586.723-.796l3.145-1.815c.325-.162.685-.242 1.048-.231l-.007-.015zm.007-1.43c-.616-.014-1.226.13-1.771.418L10.721 28c-.515.339-.944.794-1.251 1.33-.308.534-.486 1.133-.52 1.75v3.614c.035.615.213 1.213.52 1.747.308.533.737.987 1.251 1.325l3.145 1.815c.545.288 1.155.433 1.771.42.619.012 1.23-.132 1.779-.42l3.144-1.815c.515-.338.943-.792 1.25-1.325.309-.534.487-1.132.521-1.747v-3.615c-.034-.616-.212-1.215-.52-1.75-.307-.535-.735-.99-1.25-1.33l-3.145-1.828c-.548-.288-1.16-.433-1.779-.42v.015z"/>
    <path fill="url(#paint4_linear)" d="M30.37 27.196c.363-.012.724.068 1.048.232l3.145 1.814c.298.209.546.48.729.794.182.315.293.666.326 1.028v3.614c-.035.362-.147.712-.329 1.026-.182.315-.43.586-.726.796l-3.145 1.815c-.326.157-.686.233-1.048.224-.364.008-.726-.068-1.055-.224L26.177 36.5c-.296-.21-.544-.481-.726-.796-.182-.314-.294-.664-.33-1.026v-3.614c.034-.362.145-.713.327-1.027.183-.315.431-.586.73-.795l3.137-1.814c.327-.163.69-.242 1.055-.232zm0-1.446c-.619-.013-1.23.131-1.778.42l-3.138 1.814c-.516.339-.946.794-1.255 1.329-.309.535-.488 1.134-.523 1.75v3.615c.036.616.215 1.214.524 1.748.309.533.738.987 1.254 1.325l3.138 1.814c.547.288 1.16.433 1.778.42.616.013 1.226-.131 1.771-.42l3.145-1.814c.515-.338.945-.792 1.254-1.325.309-.534.488-1.132.524-1.748v-3.614c-.035-.617-.215-1.216-.523-1.751-.31-.535-.739-.99-1.255-1.329L32.14 26.17c-.545-.289-1.154-.433-1.771-.42z"/>
    <path fill="url(#paint5_linear)" d="M15.63 1.446c.365-.01.728.069 1.056.232l3.144 1.814c.296.21.543.482.724.796.18.315.291.665.324 1.026v3.614c-.034.361-.145.711-.326 1.025-.18.315-.427.586-.722.797l-3.137 1.83c-.331.147-.69.223-1.052.223-.363 0-.721-.076-1.052-.224l-3.152-1.778c-.295-.211-.541-.483-.722-.797-.18-.314-.292-.664-.326-1.025V5.364c.033-.36.144-.71.325-1.025.18-.314.427-.586.723-.796l3.145-1.815c.325-.162.685-.241 1.048-.231v-.05zm0-1.395c-.617-.011-1.227.136-1.771.427l-3.145 1.814c-.515.338-.944.792-1.251 1.325-.308.534-.486 1.132-.52 1.747V8.98c.034.615.212 1.214.52 1.747.307.534.736.988 1.251 1.325l3.145 1.815c.545.289 1.155.433 1.771.42.619.012 1.23-.132 1.778-.42l3.145-1.815c.515-.337.944-.791 1.252-1.325.307-.533.485-1.132.52-1.747V5.364c-.035-.615-.213-1.213-.52-1.747-.308-.533-.737-.987-1.252-1.325L17.416.427c-.547-.29-1.16-.437-1.779-.426l-.007.05z"/>
    <path fill="url(#paint6_linear)" d="M30.37 1.446c.363-.012.724.068 1.048.232l3.145 1.814c.298.209.546.48.729.795.182.314.293.665.326 1.027v3.614c-.034.362-.146.712-.328 1.027-.182.314-.43.586-.727.795l-3.145 1.815c-.325.16-.685.238-1.048.224-.365.012-.727-.065-1.055-.224L26.177 10.8c-.297-.21-.545-.48-.727-.795-.183-.315-.294-.665-.328-1.027V5.364c.033-.362.144-.712.326-1.027.183-.314.431-.586.73-.794l3.137-1.815c.327-.162.69-.242 1.055-.231v-.05zm0-1.395c-.62-.01-1.231.136-1.778.427l-3.138 1.814c-.516.337-.946.791-1.255 1.325-.309.533-.488 1.132-.523 1.747V8.98c.035.616.215 1.214.523 1.748.31.533.74.987 1.255 1.324l3.138 1.815c.547.288 1.16.432 1.778.42.616.013 1.226-.132 1.771-.42l3.145-1.815c.516-.337.946-.79 1.255-1.324.309-.534.488-1.132.523-1.748V5.364c-.035-.615-.215-1.214-.523-1.747-.31-.534-.74-.988-1.255-1.325L32.14.478C31.597.186 30.987.04 30.37.05z"/>
    <path fill="#202230" d="M65.68 27h8.38v-2.282h-5.612V13.909h-2.767V27zm10.162 0h2.724v-9.818h-2.724V27zm1.368-11.084c.812 0 1.477-.62 1.477-1.38 0-.755-.665-1.375-1.477-1.375-.805 0-1.47.62-1.47 1.375 0 .76.665 1.38 1.47 1.38zm7.96 14.97c2.806 0 4.8-1.278 4.8-3.79v-9.914h-2.703v1.649h-.103c-.364-.799-1.163-1.777-2.806-1.777-2.154 0-3.976 1.675-3.976 5.018 0 3.266 1.771 4.787 3.983 4.787 1.566 0 2.442-.786 2.8-1.598h.114v1.797c0 1.348-.862 1.872-2.045 1.872-1.202 0-1.809-.524-2.033-1.118l-2.518.339c.326 1.546 1.84 2.735 4.487 2.735zm.058-6.072c-1.336 0-2.065-1.061-2.065-2.755 0-1.668.716-2.838 2.065-2.838 1.323 0 2.064 1.119 2.064 2.838 0 1.732-.754 2.755-2.064 2.755zm9.632-3.49c.007-1.266.78-2.007 1.892-2.007 1.106 0 1.758.71 1.752 1.917V27h2.723v-6.251c.006-2.302-1.349-3.695-3.394-3.695-1.49 0-2.487.703-2.934 1.86h-.115V13.91h-2.647V27h2.723v-5.676zm13.732-4.142h-1.847V14.83h-2.723v2.352h-1.342v2.045h1.342v5.114c-.013 1.924 1.297 2.876 3.273 2.793.703-.025 1.201-.166 1.476-.255l-.428-2.027c-.134.026-.422.09-.678.09-.543 0-.92-.205-.92-.959v-4.756h1.847v-2.045zM114.583 27h2.768v-4.64h2.02l2.48 4.64h3.055l-2.78-5.088c1.489-.64 2.314-1.937 2.314-3.727 0-2.601-1.72-4.276-4.692-4.276h-5.165V27zm2.768-6.865v-3.963h1.866c1.598 0 2.372.71 2.372 2.013 0 1.298-.774 1.95-2.359 1.95h-1.879zm13.31 7.057c2.429 0 4.065-1.183 4.449-3.005l-2.519-.166c-.275.748-.978 1.138-1.886 1.138-1.361 0-2.224-.901-2.224-2.365v-.006h6.686v-.748c0-3.337-2.02-4.986-4.615-4.986-2.889 0-4.762 2.052-4.762 5.082 0 3.113 1.847 5.056 4.871 5.056zm-2.18-6.092c.058-1.119.908-2.013 2.116-2.013 1.182 0 2 .843 2.007 2.013h-4.123zm16.632-1.119c-.243-1.808-1.7-2.927-4.18-2.927-2.512 0-4.168 1.163-4.162 3.055-.006 1.47.921 2.423 2.839 2.806l1.7.34c.856.172 1.246.485 1.259.977-.013.582-.646.997-1.598.997-.972 0-1.617-.415-1.783-1.214l-2.679.14c.256 1.88 1.854 3.037 4.456 3.037 2.544 0 4.365-1.298 4.372-3.235-.007-1.419-.933-2.269-2.838-2.659l-1.777-.358c-.914-.198-1.253-.511-1.247-.984-.006-.588.659-.972 1.502-.972.946 0 1.509.518 1.643 1.15l2.493-.152zm7.161-2.8h-1.848V14.83h-2.723v2.353h-1.342v2.045h1.342v5.114c-.012 1.924 1.298 2.876 3.273 2.793.703-.025 1.202-.166 1.477-.255l-.428-2.027c-.135.026-.422.09-.678.09-.543 0-.921-.205-.921-.959v-4.756h1.848v-2.045zm4.573 10.004c1.451 0 2.391-.632 2.87-1.546h.077V27h2.582v-6.622c0-2.34-1.981-3.324-4.167-3.324-2.352 0-3.899 1.125-4.276 2.915l2.518.204c.185-.652.767-1.131 1.745-1.131.927 0 1.457.466 1.457 1.272v.038c0 .633-.671.716-2.377.882-1.944.18-3.689.831-3.689 3.024 0 1.943 1.387 2.927 3.26 2.927zm.78-1.879c-.837 0-1.438-.39-1.438-1.138 0-.767.633-1.144 1.592-1.278.594-.083 1.566-.224 1.892-.441v1.042c0 1.029-.851 1.815-2.046 1.815zm13.158-2.486c.007 1.316-.895 2.007-1.873 2.007-1.029 0-1.694-.723-1.7-1.88v-5.765h-2.723v6.251c.006 2.295 1.349 3.695 3.324 3.695 1.476 0 2.537-.76 2.979-1.911h.102V27h2.614v-9.818h-2.723v5.638zm4.901 4.18h2.723v-5.555c0-1.208.882-2.039 2.084-2.039.377 0 .895.064 1.151.147v-2.416c-.243-.058-.582-.096-.857-.096-1.099 0-2.001.64-2.359 1.854h-.102v-1.713h-2.64V27zm9.884.185c1.451 0 2.391-.632 2.87-1.546h.077V27h2.582v-6.622c0-2.34-1.981-3.324-4.168-3.324-2.352 0-3.899 1.125-4.276 2.915l2.519.204c.185-.652.767-1.131 1.745-1.131.927 0 1.457.466 1.457 1.272v.038c0 .633-.671.716-2.378.882-1.943.18-3.688.831-3.688 3.024 0 1.943 1.387 2.927 3.26 2.927zm.78-1.879c-.838 0-1.438-.39-1.438-1.138 0-.767.632-1.144 1.591-1.278.595-.083 1.566-.224 1.892-.441v1.042c0 1.029-.85 1.815-2.045 1.815zm9.585-3.982c.006-1.266.76-2.007 1.86-2.007 1.093 0 1.751.716 1.745 1.917V27h2.723v-6.251c0-2.289-1.343-3.695-3.388-3.695-1.457 0-2.512.716-2.953 1.86h-.115v-1.732h-2.595V27h2.723v-5.676zm13.696-4.142h-1.847V14.83h-2.723v2.352h-1.342v2.045h1.342v5.114c-.013 1.924 1.297 2.876 3.273 2.793.703-.025 1.201-.166 1.476-.255l-.428-2.027c-.134.026-.422.09-.678.09-.543 0-.92-.205-.92-.959v-4.756h1.847v-2.045z"/>
    <defs>
        <linearGradient id="paint0_linear" x1="8.263" x2="8.263" y1="12.875" y2="27.132" gradientUnits="userSpaceOnUse">
            <stop stop-color="#FF9770"/>
            <stop offset="1" stop-color="#FF6D6D"/>
        </linearGradient>
        <linearGradient id="paint1_linear" x1="23" x2="23" y1="12.875" y2="27.132" gradientUnits="userSpaceOnUse">
            <stop stop-color="#FF9770"/>
            <stop offset="1" stop-color="#FF6D6D"/>
        </linearGradient>
        <linearGradient id="paint2_linear" x1="37.736" x2="37.736" y1="12.875" y2="27.132" gradientUnits="userSpaceOnUse">
            <stop stop-color="#FF9770"/>
            <stop offset="1" stop-color="#FF6D6D"/>
        </linearGradient>
        <linearGradient id="paint3_linear" x1="15.641" x2="15.641" y1="25.75" y2="40" gradientUnits="userSpaceOnUse">
            <stop stop-color="#FF9770"/>
            <stop offset="1" stop-color="#FF6D6D"/>
        </linearGradient>
        <linearGradient id="paint4_linear" x1="30.37" x2="30.37" y1="25.75" y2="39.985" gradientUnits="userSpaceOnUse">
            <stop stop-color="#FF9770"/>
            <stop offset="1" stop-color="#FF6D6D"/>
        </linearGradient>
        <linearGradient id="paint5_linear" x1="15.634" x2="15.634" y1="0" y2="14.286" gradientUnits="userSpaceOnUse">
            <stop stop-color="#FF9770"/>
            <stop offset="1" stop-color="#FF6D6D"/>
        </linearGradient>
        <linearGradient id="paint6_linear" x1="30.37" x2="30.37" y1=".05" y2="14.286" gradientUnits="userSpaceOnUse">
            <stop stop-color="#FF9770"/>
            <stop offset="1" stop-color="#FF6D6D"/>
        </linearGradient>
    </defs>
</svg>
