<svg xmlns="http://www.w3.org/2000/svg" width="26" height="26" fill="none" viewBox="0 0 26 26">
    <path stroke="#7B7B88" stroke-linecap="round" stroke-linejoin="round" stroke-width="1.5" d="M4.875 14.177v6.948c0 .215.086.422.238.575.152.152.359.238.574.238h14.625c.216 0 .423-.086.575-.238.152-.153.238-.36.238-.575v-6.948M5.488 4.063h15.024c.177 0 .348.057.49.163.14.107.243.256.291.426L22.75 9.75H3.25l1.457-5.098c.048-.17.15-.32.292-.426.14-.106.312-.163.489-.163z"/>
    <path stroke="#7B7B88" stroke-linecap="round" stroke-linejoin="round" stroke-width="1.5" d="M9.75 9.75v1.625c0 .862-.342 1.689-.952 2.298-.61.61-1.436.952-2.298.952-.862 0-1.689-.342-2.298-.952-.61-.61-.952-1.436-.952-2.298V9.75M16.25 9.75v1.625c0 .862-.342 1.689-.952 2.298-.61.61-1.436.952-2.298.952-.862 0-1.689-.342-2.298-.952-.61-.61-.952-1.436-.952-2.298V9.75M22.75 9.75v1.625c0 .862-.342 1.689-.952 2.298-.61.61-1.436.952-2.298.952-.862 0-1.689-.342-2.298-.952-.61-.61-.952-1.436-.952-2.298V9.75"/>
</svg>
