<svg xmlns="http://www.w3.org/2000/svg" width="26" height="26" fill="none" viewBox="0 0 26 26">
    <path stroke="#7B7B88" stroke-linecap="round" stroke-linejoin="round" stroke-width="1.5" d="M3.724 17.575L6.181 3.644c.037-.213.157-.401.334-.525.177-.123.395-.172.607-.134l5.601.987c.212.038.401.158.525.334.123.177.172.395.134.607l-2.469 14.003c-.166.943-.695 1.783-1.474 2.34-.78.556-1.745.785-2.691.638-2.025-.318-3.38-2.3-3.024-4.319z"/>
    <path stroke="#7B7B88" stroke-linecap="round" stroke-linejoin="round" stroke-width="1.5" d="M12.013 12.68l7.41-2.698c.203-.073.426-.064.622.027.195.092.346.256.42.459l1.945 5.345c.036.1.053.206.048.313-.005.106-.03.211-.075.308-.045.096-.11.183-.188.255-.078.073-.17.128-.27.165L8.562 21.717"/>
    <path stroke="#7B7B88" stroke-linecap="round" stroke-linejoin="round" stroke-width="1.5" d="M22.344 16.507v4.618c0 .215-.086.422-.238.575-.153.152-.36.238-.575.238H7.313"/>
    <path fill="#7B7B88" d="M7.313 19.5c.673 0 1.218-.546 1.218-1.219s-.545-1.218-1.219-1.218c-.673 0-1.218.545-1.218 1.218 0 .673.545 1.219 1.218 1.219z"/>
</svg>
