<svg xmlns="http://www.w3.org/2000/svg" width="26" height="26" fill="none" viewBox="0 0 26 26">
  <path stroke="#7b7b88" stroke-miterlimit="10" stroke-width="1.5"
    d="M8.938 16.25c2.916 0 5.28-2.364 5.28-5.281s-2.364-5.281-5.28-5.281c-2.917 0-5.282 2.364-5.282 5.28 0 2.918 2.365 5.282 5.282 5.282z" />
  <path stroke="#7b7b88" stroke-linecap="round" stroke-linejoin="round" stroke-width="1.5"
    d="M15.784 5.884c.726-.204 1.488-.251 2.234-.137.746.115 1.459.388 2.09.801.632.414 1.168.957 1.571 1.595.404.638.666 1.354.77 2.102.103.747.045 1.508-.17 2.232-.216.723-.584 1.392-1.08 1.96-.496.57-1.108 1.026-1.795 1.338-.686.313-1.432.475-2.187.475M1.625 20.048c.824-1.173 1.92-2.13 3.192-2.792 1.273-.66 2.686-1.006 4.12-1.006 1.434 0 2.848.345 4.12 1.006 1.273.66 2.368 1.618 3.193 2.791" />
  <path stroke="#7b7b88" stroke-linecap="round" stroke-linejoin="round" stroke-width="1.5"
    d="M17.217 16.25c1.434-.001 2.848.344 4.12 1.005 1.274.66 2.369 1.619 3.193 2.793" />
</svg>
